<svg width="18" height="18" viewBox="0 0 18 18" fill="none" xmlns="http://www.w3.org/2000/svg"><path d="M2.21042 4.1775C1.80519 2.9618 2.96179 1.80519 4.17749 2.21042L14.8109 5.75453C16.2286 6.2273 16.2286 8.23263 14.8109 8.7054L10.9696 9.98582C10.5053 10.1406 10.1406 10.5053 9.98581 10.9696L8.70539 14.8109C8.23262 16.2287 6.22729 16.2287 5.75452 14.8109L2.21042 4.1775Z" fill="transparent"></path><path d="M15.1672 4.68684L4.53318 1.14218C2.43723 0.443715 0.443715 2.43723 1.14218 4.53318L4.68684 15.1672C5.50124 17.6109 8.95866 17.6109 9.77306 15.1672L11.0535 11.3253C11.0963 11.197 11.197 11.0963 11.3253 11.0535L15.1672 9.77306C17.6109 8.95866 17.6109 5.50124 15.1672 4.68684Z" stroke="var(--geist-background)" stroke-width="1.5"></path></svg>