<?xml version="1.0" encoding="UTF-8"?><svg viewBox="0 0 16 16" xmlns="http://www.w3.org/2000/svg" width="16" height="16" class="sc-bdnylx eoHNwX"><path d="M8.47267 16C8.52097 15.9853 8.56238 15.9632 8.61068 15.9338L14.0134 12.6544C14.6551 12.2647 15 11.8677 15 10.8015V5.07353C15 4.85295 14.9863 4.67647 14.9449 4.51471L8.47267 8.45589V16ZM1.0552 4.51471L7.52738 8.45589V16C7.47908 15.9853 7.43768 15.9632 7.39627 15.9338L1.98669 12.6544C1.35189 12.2647 1 11.8677 1 10.8015V5.07353C1 4.85295 1.01379 4.67647 1.0552 4.51471ZM8.00348 0C8.3912 0 8.79142 0.126726 9.19225 0.361109L9.25238 0.397071L14.1237 3.35295C14.2586 3.43138 14.3718 3.5098 14.468 3.60374L14.5033 3.63972L8.00348 7.57353L1.4968 3.63972C1.59339 3.5432 1.70056 3.46358 1.82754 3.38608L1.8832 3.35295L5.44494 1.18234L5.44631 1.18272L6.74768 0.397071C7.12744 0.164871 7.5072 0.0284368 7.88189 0.0039839L7.94429 0.000948062L8.00348 0Z" fill="currentColor"></path></svg>