<?xml version="1.0" encoding="UTF-8"?><svg viewBox="0 0 16 16" xmlns="http://www.w3.org/2000/svg" width="14" height="14" class="sc-bdnylx eoHNwX" style="margin-right: 4px; min-width: 14px;"><g fill="currentColor"><path fill-rule="evenodd" clip-rule="evenodd" d="M16 7.6C16 9.2 11.0928 13.2 8 13.2C4.90721 13.2 0 8.8 0 7.6C0 6 4.90721 2 8 2C11.0928 2 16 6 16 7.6ZM11.2 7.6C11.2 9.36731 9.76731 10.8 8 10.8C6.23269 10.8 4.8 9.36731 4.8 7.6C4.8 5.83269 6.23269 4.4 8 4.4C9.76731 4.4 11.2 5.83269 11.2 7.6ZM8 9.2C8.88366 9.2 9.6 8.48366 9.6 7.6C9.6 6.71634 8.88366 6 8 6C7.11634 6 6.4 6.71634 6.4 7.6C6.4 8.48366 7.11634 9.2 8 9.2Z" fill="currentColor"></path></g></svg>



