<?xml version="1.0" encoding="UTF-8"?><svg viewBox="0 0 16 16" xmlns="http://www.w3.org/2000/svg" width="16" height="16" class="sc-bdnylx eoHNwX"><path fill-rule="evenodd" clip-rule="evenodd" d="M8.10107 16.3008C12.5194 16.3008 16.1011 12.7191 16.1011 8.30078C16.1011 3.8825 12.5194 0.300781 8.10107 0.300781C3.6828 0.300781 0.101074 3.8825 0.101074 8.30078C0.101074 12.7191 3.6828 16.3008 8.10107 16.3008ZM9.31915 5.67111H5.91943V6.98571H7.69721V10.6283H5.91943V11.9371H11.0103V10.6283H9.31915V5.67111ZM7.64526 3.72529C7.60294 3.82953 7.58177 3.94342 7.58177 4.06696C7.58177 4.19051 7.60294 4.30633 7.64526 4.41443C7.69144 4.51867 7.75493 4.6094 7.83574 4.68662C7.91655 4.75997 8.01275 4.81788 8.12434 4.86035C8.23978 4.90282 8.36677 4.92406 8.50529 4.92406C8.79005 4.92406 9.01515 4.84491 9.18062 4.68662C9.34993 4.52447 9.43459 4.31791 9.43459 4.06696C9.43459 3.81601 9.34993 3.61139 9.18062 3.4531C9.01515 3.29095 8.79005 3.20987 8.50529 3.20987C8.36677 3.20987 8.23978 3.23111 8.12434 3.27358C8.01275 3.31604 7.91655 3.37589 7.83574 3.4531C7.75493 3.52646 7.69144 3.61718 7.64526 3.72529Z" fill="currentColor"></path></svg>