<svg width="24" height="24" viewBox="0 0 24 24" fill="none" xmlns="http://www.w3.org/2000/svg"><path fill-rule="evenodd" clip-rule="evenodd" d="M17.7866 11.6895L19.2809 14.9089H22.1697C22.4703 14.8971 22.7459 15.0753 22.8585 15.3543C22.9711 15.6332 22.8965 15.9528 22.672 16.153L20.1682 18.6374L21.5665 21.851C21.6918 22.1527 21.6108 22.5006 21.3653 22.7161C21.1198 22.9315 20.7643 22.9666 20.4814 22.8032L17.1011 20.9016L13.7197 22.8032C13.4369 22.9666 13.0814 22.9315 12.8359 22.7161C12.5903 22.5006 12.5094 22.1527 12.6346 21.851L14.0359 18.6403L11.5146 16.1559C11.288 15.9577 11.2107 15.6383 11.3215 15.3583C11.4323 15.0783 11.7073 14.8984 12.0082 14.9089H14.9173L16.4145 11.6866C16.5494 11.4325 16.8138 11.2738 17.1015 11.2744C17.3892 11.275 17.6529 11.4348 17.7866 11.6895V11.6895Z" stroke="white" stroke-width="1.5" stroke-linecap="round" stroke-linejoin="round"></path><path d="M11.836 11.7412C10.7512 10.0769 8.89459 9.07848 6.90803 9.091C3.95857 9.06788 1.45845 11.2555 1.08984 14.1819" stroke="white" stroke-width="1.5" stroke-linecap="round" stroke-linejoin="round"></path><path fill-rule="evenodd" clip-rule="evenodd" d="M6.90749 7.63628C8.71497 7.63628 10.1802 6.17103 10.1802 4.36355C10.1802 2.55607 8.71497 1.09082 6.90749 1.09082C5.10002 1.09082 3.63477 2.55607 3.63477 4.36355C3.63477 6.17103 5.10002 7.63628 6.90749 7.63628Z" stroke="white" stroke-width="1.5" stroke-linecap="round" stroke-linejoin="round"></path><path fill-rule="evenodd" clip-rule="evenodd" d="M16.3619 6.18173C17.7677 6.18173 18.9073 5.04209 18.9073 3.63627C18.9073 2.23046 17.7677 1.09082 16.3619 1.09082C14.956 1.09082 13.8164 2.23046 13.8164 3.63627C13.8164 5.04209 14.956 6.18173 16.3619 6.18173Z" stroke="white" stroke-width="1.5" stroke-linecap="round" stroke-linejoin="round"></path><path d="M20.1453 9.09102C19.4409 7.8722 18.1917 7.06808 16.7906 6.9315C15.3895 6.79493 14.0086 7.34269 13.082 8.40254" stroke="white" stroke-width="1.5" stroke-linecap="round" stroke-linejoin="round"></path></svg>