<svg xmlns="http://www.w3.org/2000/svg" fill="none" viewBox="0 0 48 48"><defs></defs><path stroke="#fff" stroke-linecap="round" stroke-linejoin="round" stroke-width="2.5" d="M21.0002 44.6402H10.5"></path><path stroke="#fff" stroke-linecap="round" stroke-linejoin="round" stroke-width="2.5" d="M26.2 30.002c.2637-.7213.9738-1.2034 1.77-1.2019h16.656c.5986-.0022 1.1626.2686 1.52.7296.3521.4559.4485 1.0486.258 1.5859L41.6 44.6401H21l5.2-14.6381z" clip-rule="evenodd"></path><path stroke="#fff" stroke-linecap="round" stroke-linejoin="round" stroke-width="2.5" d="M33.7821 34.2683c1.1046 0 2 .8596 2 1.92s-.8954 1.92-2 1.92-2-.8596-2-1.92.8954-1.92 2-1.92M1.5 44.6399c.00249-4.1207 1.5-9.4476 7-11.1399 6.5-1.9999 11-.0001 14 2.9999"></path><path stroke="#fff" stroke-linecap="round" stroke-linejoin="round" stroke-width="2.5" d="M15 28.8003c4.5563 0 8.25-3.5459 8.25-7.92s-3.6937-7.92-8.25-7.92-8.25 3.5459-8.25 7.92 3.6937 7.92 8.25 7.92z" clip-rule="evenodd"></path><path stroke="#fff" stroke-linecap="round" stroke-linejoin="round" stroke-width="2.5" d="M38.25 4.32001H33c-1.2882-.00394-2.3974.87192-2.6418 2.08612-.2445 1.21421.4448 2.42376 1.6418 2.88092l5.31 1.58405c1.1951.4589 1.8826 1.6678 1.6384 2.881-.2442 1.2133-1.3512 2.0893-2.6384 2.0879H30M34.5 4.32012v-2.88M34.5 18.7199v-2.88"></path></svg>