<svg xmlns="http://www.w3.org/2000/svg" fill="none" viewBox="0 0 51 51"><defs></defs><path stroke="#fff" stroke-linecap="round" stroke-linejoin="round" stroke-width="2.5" d="M38.2504 6.11076c-7.4355-6.0193112-18.0645-6.0193112-25.5 0M18.0629 13.7884c4.3378-3.5095 10.5371-3.5095 14.875 0"></path><path stroke="#fff" stroke-linecap="round" stroke-linejoin="round" stroke-width="2.5" d="M7.17248 35.0628c3.08072 0 5.57812-2.4974 5.57812-5.5782 0-3.0807-2.4974-5.5781-5.57812-5.5781-3.08071 0-5.57812 2.4974-5.57812 5.5781 0 3.0808 2.49741 5.5782 5.57812 5.5782z" clip-rule="evenodd"></path><path stroke="#fff" stroke-linecap="round" stroke-linejoin="round" stroke-width="2.5" d="M15.9679 42.4672c-1.1415-2.6684-3.4319-4.6741-6.22666-5.4526-2.79472-.7784-5.79152-.2454-8.14688 1.4491"></path><path stroke="#fff" stroke-linecap="round" stroke-linejoin="round" stroke-width="2.5" d="M43.8289 35.0628c3.0807 0 5.5781-2.4974 5.5781-5.5782 0-3.0807-2.4974-5.5781-5.5781-5.5781s-5.5781 2.4974-5.5781 5.5781c0 3.0808 2.4974 5.5782 5.5781 5.5782z" clip-rule="evenodd"></path><path stroke="#fff" stroke-linecap="round" stroke-linejoin="round" stroke-width="2.5" d="M35.0334 42.4672c1.1414-2.6684 3.4319-4.6741 6.2266-5.4526 2.7947-.7784 5.7915-.2454 8.1469 1.4491"></path><path stroke="#fff" stroke-linecap="round" stroke-linejoin="round" stroke-width="2.5" d="M25.5008 35.0625c3.9609 0 7.1719-3.211 7.1719-7.1719s-3.211-7.1719-7.1719-7.1719-7.1719 3.211-7.1719 7.1719 3.211 7.1719 7.1719 7.1719z" clip-rule="evenodd"></path><path stroke="#fff" stroke-linecap="round" stroke-linejoin="round" stroke-width="2.5" d="M38.2504 49.4063c-.8586-6.3849-6.3076-11.1503-12.75-11.1503s-11.8915 4.7654-12.75 11.1503"></path></svg>