<?xml version="1.0" encoding="UTF-8"?><svg viewBox="0 0 16 16" xmlns="http://www.w3.org/2000/svg" width="16" height="16" class="sc-bdnylx eoHNwX"><path fill-rule="evenodd" clip-rule="evenodd" d="M8 0C5.6 0 4.4 2.33284 4.4 3.69231L2.375 3.69231C2.16789 3.69231 2 3.87599 2 4.10256V5.74359C2 5.97017 2.16789 6.15385 2.375 6.15385H13.625C13.8321 6.15385 14 5.97017 14 5.74359V4.10256C14 3.87599 13.8321 3.69231 13.625 3.69231L11.6 3.69231C11.6 2.33284 10.4 0 8 0ZM10.4 3.69231H5.6C5.6 2.78599 6.2 1.23077 8 1.23077C9.8 1.23077 10.4 2.78599 10.4 3.69231Z" fill="currentColor"></path><path d="M3.09091 7.38462C2.8704 7.38462 2.69748 7.59176 2.71745 7.83202L3.469 15.6269C3.48656 15.8382 3.6485 16 3.84246 16H12.1575C12.3515 16 12.5134 15.8382 12.531 15.6269L13.1431 7.83202C13.1631 7.59176 12.9901 7.38462 12.7696 7.38462H3.09091Z" fill="currentColor"></path></svg>